<svg width="38" height="296" viewBox="0 0 38 296" fill="none" xmlns="http://www.w3.org/2000/svg">
<path d="M1.17608 250.7L17.7761 295.2C17.8761 295.6 18.1761 295.8 18.5761 295.8C18.9761 295.8 19.2761 295.6 19.4761 295.2L36.0761 250.7C38.1761 245 37.4761 238.6 33.9761 233.5C30.6761 228.6 25.3761 225.6 19.4761 225.3L19.4761 206.6C19.4761 206.1 19.0761 205.8 18.6761 205.8C18.2761 205.8 17.8761 206.2 17.8761 206.6L17.8761 225.3C11.9761 225.6 6.67608 228.5 3.37608 233.5C-0.223922 238.5 -0.923919 245 1.17608 250.7ZM34.4761 250.1L18.5761 292.8L7.77608 263.6L17.7761 253.4L17.7761 267.6C17.7761 268.1 18.1761 268.4 18.5761 268.4C18.9761 268.4 19.3761 268 19.3761 267.6L19.3761 243.4L30.9761 255C31.1761 255.2 31.3761 255.2 31.5761 255C31.7761 254.8 31.7761 254.6 31.5761 254.4L19.4761 242.2L19.4761 227C24.7761 227.2 29.5761 229.9 32.5761 234.4C35.7761 239.1 36.4761 244.8 34.4761 250.1ZM17.7761 233.7L9.77608 241.8C9.57608 242 9.57608 242.2 9.77608 242.4C9.97608 242.6 10.1761 242.6 10.3761 242.4L17.7761 234.9L17.7761 252.2L7.47608 262.7L2.77608 250.2L8.57608 244.3C8.77608 244.1 8.77608 243.9 8.57608 243.7C8.47608 243.6 8.37608 243.6 8.27608 243.6C8.17608 243.6 8.07608 243.6 7.97608 243.7L2.47608 249.3C0.87608 244.2 1.67608 238.9 4.67608 234.4C7.67608 229.9 12.4761 227.2 17.8761 227C17.7761 227 17.7761 233.7 17.7761 233.7Z" fill="white"/>
<path d="M18.576 263.8L18.5761 1" stroke="white" stroke-width="1.7" stroke-miterlimit="10" stroke-linecap="round"/>
</svg>
