<svg id="Layer_1" data-name="Layer 1" xmlns="http://www.w3.org/2000/svg" viewBox="0 0 383.54 66.07"><defs><style>.cls-1{fill:none;}.cls-1,.cls-2{stroke:#fff;stroke-miterlimit:10;}.cls-2{font-size:43px;fill:#fff;font-family:Montserrat-ExtraLight, Montserrat ExtraLight;}.cls-3{letter-spacing:0em;}.cls-4{letter-spacing:-0.01em;}.cls-5{letter-spacing:0em;}.cls-6{letter-spacing:0.02em;}</style></defs><title>logo-white</title><line class="cls-1" x1="210.95" y1="0.3" x2="210.95" y2="60.05"/><path class="cls-1" d="M214.42,66.8c-4.55,2-24.66-9-26.27-17.81L210,60.57V57.45l-21.82-14.7A11.36,11.36,0,0,1,191.26,33L210,45.87V43.2l-16-15.59c.23-3.34,2-6.13,5.79-8.46l10.24,12V27.61L203.29,14.7a17.57,17.57,0,0,1,11.13-7.57c5.2,1.92,9,4.54,11.14,8l-6.68,12.92v3.11l10.68-12c3.56,2.09,5.48,4.78,5.79,8l-16,16v3.12L238,32.06c2.17,3.95,3.26,7.73,2.68,11.14L219.32,57.45v3.12L240.7,49.43C241.09,57.07,218.34,68.56,214.42,66.8Z" transform="translate(-3.5 -6.61)"/><path class="cls-1" d="M188.59,49.43a59.81,59.81,0,0,0,25.83,16c10.6-2,19.28-7.55,26.28-16" transform="translate(-3.5 -6.61)"/><text class="cls-2" transform="translate(0.5 54.39)">M<tspan class="cls-3" x="41.11" y="0">a</tspan><tspan x="66" y="0">de </tspan></text><text class="cls-2" transform="translate(240.5 54.39)"><tspan class="cls-4">r</tspan><tspan class="cls-5" x="16.08" y="0">gani</tspan><tspan class="cls-6" x="109.91" y="0">c</tspan><tspan x="134.37" y="0">.</tspan></text><text class="cls-2" transform="translate(130.5 54.39)">in</text></svg>