<?xml version="1.0" encoding="utf-8"?>
<!-- Generator: Adobe Illustrator 22.0.1, SVG Export Plug-In . SVG Version: 6.00 Build 0)  -->
<svg version="1.1" id="Layer_1" xmlns="http://www.w3.org/2000/svg" xmlns:xlink="http://www.w3.org/1999/xlink" x="0px" y="0px"
	 viewBox="0 0 94 173" style="enable-background:new 0 0 94 173;" xml:space="preserve">
<style type="text/css">
	.st0{fill:#97BC42;}
</style>
<path class="st0" d="M89.6,111L49.1,2.3c-0.2-1-1-1.5-2-1.5S45.4,1.3,45,2.3L4.4,111c-5.1,13.9-3.4,29.6,5.1,42
	c8.1,12,21,19.3,35.4,20l0,0c0,0,0,0,0.2,0c0,0,0,0,0.2,0c0,0,0,0,0.2,0c0.2,0,0.5,0,0.7,0c0.2,0,0.2,0,0.5,0h0.2c0.2,0,0.2,0,0.5,0
	s0.5,0,0.7,0s0.5,0,0.7,0l0,0c14.4-0.7,27.4-7.8,35.4-20C93.1,140.8,94.8,124.9,89.6,111z M47.1,67.7c-1,0-2,1-2,2v59.1l-28.3-28.3
	c-0.5-0.5-1-0.5-1.5,0c-0.5,0.5-0.5,1,0,1.5L45,131.7v37.1c-12.9-0.5-24.7-7.1-32-18.1c-7.8-11.5-9.5-25.4-4.6-38.3L47.1,8.1
	l26.4,71.3l-24.4,24.9V69.7C49.1,68.5,48.1,67.7,47.1,67.7z M81.1,150.8c-7.3,11-19.1,17.6-32.2,18.1c0.2,0,0.2-16.4,0.2-16.4
	l19.5-19.8c0.5-0.5,0.5-1,0-1.5c-0.5-0.5-1-0.5-1.5,0l-18.1,18.3v-42.3l25.2-25.6l11.5,30.5l-14.2,14.4c-0.5,0.5-0.5,1,0,1.5
	c0.2,0.2,0.5,0.2,0.7,0.2s0.5,0,0.7-0.2l13.4-13.7C90.4,126.8,88.4,139.8,81.1,150.8z"/>
</svg>
